<?xml version="1.0" encoding="utf-8"?>
<svg xmlns="http://www.w3.org/2000/svg" xmlns:xlink="http://www.w3.org/1999/xlink" version="1.1" width="700" height="1000" viewBox="0 0 700 1000">
	<defs>
		<path id="ship-body" d="m 0,0 h -70 c -25,-30 -40,-55 -40,-70 h -25 v -55 h 60 v -125 h 10 v 125 h 10 l 10,25 h 20 l 15,30 h 25 v -230 h 10 v 230 h 5 l 15,-30 h 40 v -115 h -8 l -10,-25 h 18 v -10 h 10 v 10 h 18 l -10,25 h -8 v 115 h 30 l 55,-20 v 15 l -50,30 c -20,10 -25,50 -55,75 z"/>
		
		<path id="ship-sail-open" d="m 0,0 c 90,0 90,-90 0,-90 35,0 35,90 0,90 z" style="stroke: black; stroke-width: 2px; fill: white;"/>
		<path id="ship-sail-closed" d="m 0,0 a 20,20 0 0 0 32,15 20,20 0 0 0 30,5 20,20 0 0 0 28,-10 z" style="stroke: black; stroke-width: 2px; fill: white;"/>
		
		<path id="ship-flag" d="m 0,0 c -15,0 -30,-7 -35,2 -2.5,4.5 -10,0 -20,0 v -30 c 10,0 17.5,4.5 20,0 c 5,-9 20,-2 35,-2 z" style="stroke: black; stroke-width: 2px; fill: white;"/>
		
		<g id="ship">
			<use xlink:href="#ship-body"/>
			<use xlink:href="#ship-sail-open" x="-100" y="-155"/>
			<use xlink:href="#ship-sail-open" x="-10" y="-110"/>
			<use xlink:href="#ship-sail-open" x="60" y="-125"/>
			<use xlink:href="#ship-sail-closed" x="-30" y="-245"/>
			<use xlink:href="#ship-flag" x="25" y="-260"/>
		</g>
		
		<path id="sparkle" d="m -10,0 a
			10,10 0 0 1 10,10
			10,10 0 0 1 10,-10
			10,10 0 0 1 -10,-10
			10,10 0 0 1 -10,10
			z" style="stroke: black; stroke-width: 1px; fill: #ffeecc;"/>
		
		<path id="angel" d="m -19,-63 c 0,2 4,3 6,4 -3,0 -1,4 2,4 -2,0 -1,3 2,3 -6,0 -6,2 -15,2 2,2 6,2 10,4 l -6,1 8,2 -3,2 15,2 c -2,0 2,3 4,2 l 2,1 c -3,2 -6,5 -6,7 -11,0 -34,-1 -34,6 -0,-2 -1,-3 -2,-4 -1,-2 -11,3 -10,5 1,2 2,1 6,0 l 4,2 c -4,3 10,5 10,7 l -3,0 c 0,-1 -1,-1 -2,-2 -1,-1 -7,5 -6,6 1,1 5,-1 7,-2 l 6,2 C -24,-7 -23,-6 -20,-4 c 7,3 10,4 20,4 8,0 12,-10 16,-22 2,0 2,-2 2,-3 2,5 7,10 9,10 2,0 9,-5 12,-10 0,-2 0,-4 -1,-4 l 4,-6 8,3 4,4 c 2,-1 3,-4 3,-7 l -6,0 -8,-3 c 0,-1 -3,-2 -4,-1 l -6,-2 -1,-5 4,0 c -1,-4 -5,-5 -9,-6 -6,-1 -10,2 -14,3 -13,-22 -32,-16 -32,-14 z m 51,24 6,2 0,3 -9,6 -7,-6 1,-2 7,-1 z"/>
		
		<g id="person">
			<path id="person-body" d="M 0,-135 H 45 A 10,10 0 0 1 55,-125 V -80 A 10,10 0 0 1 35,-80 V -112.5 A 2.5,2.5 0 0 0 30,-112.5 V -12.5 A 12.5,12.5 0 0 1 5,-12.5 V -65 A 5,5 0 0 0 -5,-65 V -12.5 A 12.5,12.5 0 0 1 -30,-12.5 V -112.5 A 2.5,2.5 0 0 0 -35,-112.5 V -80 A 10,10 0 0 1 -55,-80 V -125 A 10,10 0 0 1 -45,-135 Z"/>
			<path id="person-head" d="M 0,-140 A 30,30 0 0 1 0,-200 30,30 0 0 1 0,-140 Z"/>
		</g>
		
		<clipPath id="clip-main">
			<path d="m 25,800
				l 15,0 c 10,0 6,-19 -3,-10 -6,-4 -1,-12 8,-12 14,0 14,22 25,22 l 5,0
				l 15,0 c 10,0 6,-19 -3,-10 -6,-4 -1,-12 8,-12 14,0 14,22 25,22 l 5,0
				l 15,0 c 10,0 6,-19 -3,-10 -6,-4 -1,-12 8,-12 14,0 14,22 25,22 l 5,0
				l 15,0 c 10,0 6,-19 -3,-10 -6,-4 -1,-12 8,-12 14,0 14,22 25,22 l 5,0
				l 15,0 c 10,0 6,-19 -3,-10 -6,-4 -1,-12 8,-12 14,0 14,22 25,22 l 5,0
				l 15,0 c 10,0 6,-19 -3,-10 -6,-4 -1,-12 8,-12 14,0 14,22 25,22 l 5,0
				l 15,0 c 10,0 6,-19 -3,-10 -6,-4 -1,-12 8,-12 14,0 14,22 25,22 l 5,0
				l 15,0 c 10,0 6,-19 -3,-10 -6,-4 -1,-12 8,-12 14,0 14,22 25,22 l 5,0
				l 15,0 c 10,0 6,-19 -3,-10 -6,-4 -1,-12 8,-12 14,0 14,22 25,22 l 5,0
				l 15,0 c 10,0 6,-19 -3,-10 -6,-4 -1,-12 8,-12 14,0 14,22 25,22 l 5,0
				l 15,0 c 10,0 6,-19 -3,-10 -6,-4 -1,-12 8,-12 14,0 14,22 25,22 l 5,0
				l 15,0 c 10,0 6,-19 -3,-10 -6,-4 -1,-12 8,-12 14,0 14,22 25,22 l 5,0
				l 15,0 c 10,0 6,-19 -3,-10 -6,-4 -1,-12 8,-12 14,0 14,22 25,22 l 5,0
				v -650 h -650 z"/>
		</clipPath>
		
		<clipPath id="clip-thought-bubble">
			<path id="thought-bubble" d="M -29.368,223.075 A
				40,40 0 0 1 -86.104,207.873
				40,40 0 0 1 -136.971,178.505
				40,40 0 0 1 -178.505,136.971
				40,40 0 0 1 -207.873,86.104
				40,40 0 0 1 -223.075,29.368
				40,40 0 0 1 -223.075,-29.368
				40,40 0 0 1 -207.873,-86.104
				40,40 0 0 1 -178.505,-136.971
				40,40 0 0 1 -136.971,-178.505
				40,40 0 0 1 -86.104,-207.873
				40,40 0 0 1 -29.368,-223.075
				40,40 0 0 1 29.368,-223.075
				40,40 0 0 1 86.104,-207.873
				40,40 0 0 1 136.971,-178.505
				40,40 0 0 1 178.505,-136.971
				40,40 0 0 1 207.873,-86.104
				40,40 0 0 1 223.075,-29.368
				40,40 0 0 1 223.075,29.368
				40,40 0 0 1 207.873,86.104
				40,40 0 0 1 178.505,136.971
				40,40 0 0 1 136.971,178.505
				40,40 0 0 1 86.104,207.873
				40,40 0 0 1 29.368,223.075
				40,40 0 0 1 -29.368,223.075
				z" transform="translate(430,400)"/>
		</clipPath>
		
		<clipPath id="clip-thought">
			<path d="m 185,580
				l 15,0 c 10,0 6,-19 -3,-10 -6,-4 -1,-12 8,-12 14,0 14,22 25,22 l 5,0
				l 15,0 c 10,0 6,-19 -3,-10 -6,-4 -1,-12 8,-12 14,0 14,22 25,22 l 5,0
				l 15,0 c 10,0 6,-19 -3,-10 -6,-4 -1,-12 8,-12 14,0 14,22 25,22 l 5,0
				l 15,0 c 10,0 6,-19 -3,-10 -6,-4 -1,-12 8,-12 14,0 14,22 25,22 l 5,0
				l 15,0 c 10,0 6,-19 -3,-10 -6,-4 -1,-12 8,-12 14,0 14,22 25,22 l 5,0
				l 15,0 c 10,0 6,-19 -3,-10 -6,-4 -1,-12 8,-12 14,0 14,22 25,22 l 5,0
				l 15,0 c 10,0 6,-19 -3,-10 -6,-4 -1,-12 8,-12 14,0 14,22 25,22 l 5,0
				l 15,0 c 10,0 6,-19 -3,-10 -6,-4 -1,-12 8,-12 14,0 14,22 25,22 l 5,0
				l 15,0 c 10,0 6,-19 -3,-10 -6,-4 -1,-12 8,-12 14,0 14,22 25,22 l 5,0
				l 15,0 c 10,0 6,-19 -3,-10 -6,-4 -1,-12 8,-12 14,0 14,22 25,22 l 5,0
				v -450 h -500 z"/>
		</clipPath>
	</defs>
	
	<rect width="700" height="1000" style="fill: #cceeee"/>
	
	<g clip-path="url(#clip-main)">
		<use xlink:href="#ship" transform="translate(425,875) rotate(15)"/>
		
		<use xlink:href="#thought-bubble" style="stroke: none; fill: #ffeecc;"/>
		<g clip-path="url(#clip-thought-bubble)">
			<g clip-path="url(#clip-thought)">
				<use xlink:href="#ship" transform="translate(415,600)"/>
				
				<use xlink:href="#sparkle" transform="translate(265,500)"/>
				<use xlink:href="#sparkle" transform="translate(310,460)"/>
				<use xlink:href="#sparkle" transform="translate(300,410)"/>
				<use xlink:href="#sparkle" transform="translate(320,350)"/>
				<use xlink:href="#sparkle" transform="translate(380,310)"/>
				<use xlink:href="#sparkle" transform="translate(440,300)"/>
				<use xlink:href="#sparkle" transform="translate(470,340)"/>
				<use xlink:href="#sparkle" transform="translate(528,360)"/>
				<use xlink:href="#sparkle" transform="translate(560,420)"/>
				<use xlink:href="#sparkle" transform="translate(550,480)"/>
				<use xlink:href="#sparkle" transform="translate(595,500)"/>
				
				<use xlink:href="#angel" transform="translate(320,290)"/>
				<use xlink:href="#angel" transform="translate(520,280) scale(-1,1)"/>
			</g>
			
			<path d="m 185,580
				l 15,0 c 10,0 6,-19 -3,-10 -6,-4 -1,-12 8,-12 14,0 14,22 25,22 l 5,0
				l 15,0 c 10,0 6,-19 -3,-10 -6,-4 -1,-12 8,-12 14,0 14,22 25,22 l 5,0
				l 15,0 c 10,0 6,-19 -3,-10 -6,-4 -1,-12 8,-12 14,0 14,22 25,22 l 5,0
				l 15,0 c 10,0 6,-19 -3,-10 -6,-4 -1,-12 8,-12 14,0 14,22 25,22 l 5,0
				l 15,0 c 10,0 6,-19 -3,-10 -6,-4 -1,-12 8,-12 14,0 14,22 25,22 l 5,0
				l 15,0 c 10,0 6,-19 -3,-10 -6,-4 -1,-12 8,-12 14,0 14,22 25,22 l 5,0
				l 15,0 c 10,0 6,-19 -3,-10 -6,-4 -1,-12 8,-12 14,0 14,22 25,22 l 5,0
				l 15,0 c 10,0 6,-19 -3,-10 -6,-4 -1,-12 8,-12 14,0 14,22 25,22 l 5,0
				l 15,0 c 10,0 6,-19 -3,-10 -6,-4 -1,-12 8,-12 14,0 14,22 25,22 l 5,0
				l 15,0 c 10,0 6,-19 -3,-10 -6,-4 -1,-12 8,-12 14,0 14,22 25,22 l 5,0" style="stroke: black; stroke-width: 2px; fill: none;"/>
		</g>
		<use xlink:href="#thought-bubble" style="stroke: black; stroke-width: 5px; fill: none;"/>
		<circle cx="185" cy="535" r="12.5" style="stroke: black; stroke-width: 5px; fill: #ffeecc;"/>
		<circle cx="165" cy="585" r="10" style="stroke: black; stroke-width: 5px; fill: #ffeecc;"/>
		<circle cx="145" cy="635" r="7.5" style="stroke: black; stroke-width: 5px; fill: #ffeecc;"/>
		
		<path d="m 25,750
			h 25 v -5 c 0,-5 20,-5 20,0 v 5
			h 75 v -5 c 0,-5 20,-5 20,0 v 5
			h 75 v -5 c 0,-5 20,-5 20,0 v 5
			h 20 v 10
			h -20 v 50 h -20 v -50
			h -75 v 50 h -20 v -50
			h -75 v 50 h -20 v -50
			h -25 z" style="stroke: none; fill: black;"/>
		
		<use xlink:href="#person" transform="translate(100,750) scale(0.5)" style="stroke: none; fill: black;"/>
	</g>
	
	<path d="m 25,800
		l 15,0 c 10,0 6,-19 -3,-10 -6,-4 -1,-12 8,-12 14,0 14,22 25,22 l 5,0
		l 15,0 c 10,0 6,-19 -3,-10 -6,-4 -1,-12 8,-12 14,0 14,22 25,22 l 5,0
		l 15,0 c 10,0 6,-19 -3,-10 -6,-4 -1,-12 8,-12 14,0 14,22 25,22 l 5,0
		l 15,0 c 10,0 6,-19 -3,-10 -6,-4 -1,-12 8,-12 14,0 14,22 25,22 l 5,0
		l 15,0 c 10,0 6,-19 -3,-10 -6,-4 -1,-12 8,-12 14,0 14,22 25,22 l 5,0
		l 15,0 c 10,0 6,-19 -3,-10 -6,-4 -1,-12 8,-12 14,0 14,22 25,22 l 5,0
		l 15,0 c 10,0 6,-19 -3,-10 -6,-4 -1,-12 8,-12 14,0 14,22 25,22 l 5,0
		l 15,0 c 10,0 6,-19 -3,-10 -6,-4 -1,-12 8,-12 14,0 14,22 25,22 l 5,0
		l 15,0 c 10,0 6,-19 -3,-10 -6,-4 -1,-12 8,-12 14,0 14,22 25,22 l 5,0
		l 15,0 c 10,0 6,-19 -3,-10 -6,-4 -1,-12 8,-12 14,0 14,22 25,22 l 5,0
		l 15,0 c 10,0 6,-19 -3,-10 -6,-4 -1,-12 8,-12 14,0 14,22 25,22 l 5,0
		l 15,0 c 10,0 6,-19 -3,-10 -6,-4 -1,-12 8,-12 14,0 14,22 25,22 l 5,0
		l 15,0 c 10,0 6,-19 -3,-10 -6,-4 -1,-12 8,-12 14,0 14,22 25,22 l 5,0" style="stroke: black; stroke-width: 2px; fill: none;"/>
	
	<text x="350" y="120" style="font-size: 54px; text-anchor: middle; font-family: serif;">The Ethics of Belief</text>
	<text x="350" y="930" style="font-size: 32px; text-anchor: middle; font-family: serif;">William Kingdon Clifford</text>
</svg>
